Coordinates
version=1
nRows=8
nColumns=63
inDegrees=yes

Units are S.I. units (second, meters, Newtons, ...)
If the header above contains a line with 'inDegrees', this indicates whether rotational values are in degrees (yes) or radians (no).

endheader
time	pelvis_tilt	pelvis_list	pelvis_rotation	pelvis_tx	pelvis_ty	pelvis_tz	hip_flexion_r	hip_adduction_r	hip_rotation_r	knee_angle_r	knee_angle_r_beta	ankle_angle_r	subtalar_angle_r	mtp_angle_r	hip_flexion_l	hip_adduction_l	hip_rotation_l	knee_angle_l	knee_angle_l_beta	ankle_angle_l	subtalar_angle_l	mtp_angle_l	L5_S1_Flex_Ext	L5_S1_Lat_Bending	L5_S1_axial_rotation	L4_L5_Flex_Ext	L4_L5_Lat_Bending	L4_L5_axial_rotation	L3_L4_Flex_Ext	L3_L4_Lat_Bending	L3_L4_axial_rotation	L2_L3_Flex_Ext	L2_L3_Lat_Bending	L2_L3_axial_rotation	L1_L2_Flex_Ext	L1_L2_Lat_Bending	L1_L2_axial_rotation	L1_T12_Flex_Ext	L1_T12_Lat_Bending	L1_T12_axial_rotation	Abs_r3	Abs_r2	Abs_r1	Abs_t1	Abs_t2	neck_flexion	neck_bending	neck_rotation	arm_flex_r	arm_add_r	arm_rot_r	elbow_flex_r	pro_sup_r	wrist_flex_r	wrist_dev_r	arm_flex_l	arm_add_l	arm_rot_l	elbow_flex_l	pro_sup_l	wrist_flex_l	wrist_dev_l
      7.50000000	    -51.94193638	     -5.84234485	     -3.65519581	     -0.36338014	      1.12475620	      0.04367125	    116.78636837	     -5.78790127	     -3.95628847	    110.16345431	      1.92271499	     24.18049019	      9.49035942	      0.00000000	     82.56009596	    -11.57280872	     -0.75240553	     51.77444209	      0.90363448	     13.68489908	     13.45649420	      0.00000000	     -0.07194805	      0.57506422	      1.18367265	     -0.13361473	      0.76483541	      1.25765219	     -0.11820346	      1.39821114	      1.25765219	     -0.08222943	      1.39821114	      1.03571357	     -0.06681096	      1.17267096	      0.96173403	     -0.04111112	      0.89077448	      0.88775449	     -0.51391775	      6.50524147	      6.58323220	      0.00000000	      0.00000000	     -0.00000000	      0.00000000	      0.00000000	     76.21149762	    -17.80547129	     29.71823632	     31.09064462	     37.89324295	      0.00000000	      5.00000018	     73.87166271	     -6.35754872	     17.96700282	     30.61237940	     53.41076145	      0.00000000	      5.00000018
      7.50800000	    -51.94222747	     -5.69135245	     -3.41759345	     -0.36362148	      1.12471190	      0.04355192	    117.03368197	     -5.92251550	     -4.00887924	    108.96901583	      1.90186811	     24.19952474	      9.13433631	      0.00000000	     82.78995906	    -11.35565986	     -0.53557278	     53.59752608	      0.93545330	     13.99947319	     13.22427239	      0.00000000	     -0.07231138	      0.55388767	      1.13920926	     -0.13428946	      0.73667060	      1.21040984	     -0.11880036	      1.34672248	      1.21040984	     -0.08264467	      1.34672248	      0.99680810	     -0.06714835	      1.12948773	      0.92560752	     -0.04131872	      0.85797200	      0.85440694	     -0.51651294	      6.26568809	      6.33594014	      0.00000000	      0.00000000	     -0.00000000	      0.00000000	      0.00000000	     76.20277745	    -17.77909792	     29.75417881	     31.12932927	     37.91375560	      0.00000000	      5.00000018	     73.88805552	     -6.42197039	     17.94004411	     30.70307321	     53.38882865	      0.00000000	      5.00000018
      7.51700000	    -51.96241641	     -5.56556849	     -3.21123181	     -0.36397734	      1.12471859	      0.04339903	    117.18813183	     -6.03326460	     -4.11500466	    107.60983077	      1.87814585	     24.18793500	      8.75620738	      0.00000000	     83.16352862	    -11.17904742	     -0.29800372	     55.61470990	      0.97065980	     14.29687751	     13.02698055	      0.00000000	     -0.07201790	      0.53644441	      1.10119772	     -0.13374444	      0.71347106	      1.17002257	     -0.11831821	      1.30431093	      1.17002257	     -0.08230926	      1.30431093	      0.96354800	     -0.06687582	      1.09391743	      0.89472314	     -0.04115103	      0.83095238	      0.82589829	     -0.51441665	      6.06836641	      6.12453133	      0.00000000	      0.00000000	     -0.00000000	      0.00000000	      0.00000000	     76.22929305	    -17.75122134	     29.75495755	     31.13594914	     37.92901755	      0.00000000	      5.00000018	     73.90994191	     -6.48545393	     17.91585224	     30.77903060	     53.36676806	      0.00000000	      5.00000018
      7.52500000	    -51.99271797	     -5.76941857	     -3.33217764	     -0.36436414	      1.12487928	      0.04350594	    117.09796901	     -5.93737513	     -4.79090797	    105.96900095	      1.84950797	     23.85017378	      7.50988494	      0.00000000	     83.73801890	    -11.44134860	      0.19594681	     57.87290731	      1.01007278	     14.63278312	     13.22534847	      0.00000000	     -0.07316178	      0.56183132	      1.13047584	     -0.13586874	      0.74723566	      1.20113058	     -0.12019749	      1.36603668	      1.20113058	     -0.08361660	      1.36603668	      0.98916636	     -0.06793803	      1.14568644	      0.91851162	     -0.04180464	      0.87027672	      0.84785688	     -0.52258727	      6.35554830	      6.28736748	      0.00000000	      0.00000000	     -0.00000000	      0.00000000	      0.00000000	     76.38685664	    -17.82001866	     29.95169187	     30.99304690	     37.92919643	      0.00000000	      5.00000017	     73.89136324	     -6.40652187	     17.73921010	     30.83321974	     53.37780655	      0.00000000	      5.00000017
      7.53300000	    -52.00875930	     -5.72002721	     -3.11411364	     -0.36481676	      1.12490885	      0.04323503	    117.01687834	     -6.04953679	     -4.93831558	    104.32840564	      1.82087418	     23.73552090	      7.11760295	      0.00000000	     84.30747030	    -11.29182832	      0.47556383	     60.13768443	      1.04960060	     14.81814244	     13.22583146	      0.00000000	     -0.07404467	      0.55265266	      1.09643904	     -0.13750836	      0.73502804	      1.16496649	     -0.12164799	      1.34371969	      1.16496649	     -0.08462566	      1.34371969	      0.95938416	     -0.06875788	      1.12696931	      0.89085672	     -0.04230913	      0.85605898	      0.82232928	     -0.52889370	      6.25171747	      6.09806504	      0.00000000	      0.00000000	     -0.00000000	      0.00000000	      0.00000000	     76.43771294	    -17.83851986	     29.91785536	     30.96762865	     37.92173974	      0.00000000	      5.00000017	     73.96148294	     -6.37552019	     17.67590128	     30.80017374	     53.36986316	      0.00000000	      5.00000017
      7.54200000	    -52.02638172	     -5.52879333	     -2.63965109	     -0.36528791	      1.12482772	      0.04268504	    116.91878851	     -6.33172336	     -4.78948868	    102.67965330	      1.79209802	     23.58243878	      6.96273978	      0.00000000	     84.86113642	    -10.84587424	      0.64448684	     62.34403740	      1.08810872	     15.19748757	     13.32097051	      0.00000000	     -0.07166187	      0.52304666	      1.01303084	     -0.13308326	      0.69565206	      1.07634527	     -0.11773329	      1.27173565	      1.07634527	     -0.08190235	      1.27173565	      0.88640199	     -0.06654521	      1.06659675	      0.82308756	     -0.04094759	      0.81019928	      0.75977313	     -0.51187358	      5.91680845	      5.63417364	      0.00000000	      0.00000000	     -0.00000000	      0.00000000	      0.00000000	     76.41401649	    -17.83903727	     29.89130869	     31.00704083	     37.91133019	      0.00000000	      5.00000017	     74.08546141	     -6.38435015	     17.64110163	     30.76963195	     53.37156688	      0.00000000	      5.00000017
      7.55000000	    -52.07179730	     -5.68257260	     -2.53562105	     -0.36585331	      1.12491182	      0.04247247	    116.56818266	     -6.41015419	     -5.25542824	    100.74860358	      1.75839485	     23.27503021	      6.30171287	      0.00000000	     85.64152424	    -10.87868443	      1.07774902	     64.74751211	      1.13005727	     15.32234080	     13.67866246	      0.00000000	     -0.06995554	      0.53695839	      1.01126425	     -0.12991443	      0.71415466	      1.07446826	     -0.11492995	      1.30556064	      1.07446826	     -0.07995218	      1.30556064	      0.88485622	     -0.06496071	      1.09496556	      0.82165220	     -0.03997259	      0.83174855	      0.75844819	     -0.49968541	      6.07418074	      5.62434837	      0.00000000	      0.00000000	     -0.00000000	      0.00000000	      0.00000000	     76.50124386	    -17.93816519	     29.71927633	     30.96857678	     37.85552416	      0.00000000	      5.00000017	     74.20385681	     -6.18332034	     17.60564134	     30.57477559	     53.39896413	      0.00000000	      5.00000017
      7.55800000	    -52.07257065	     -5.51840720	     -1.94882021	     -0.36645955	      1.12487454	      0.04183826	    116.24836792	     -6.75766427	     -5.03614391	     98.88318495	      1.72583715	     22.96965543	      6.21446680	      0.00000000	     86.23637250	    -10.37115738	      1.15270743	     66.90205784	      1.16766119	     15.69284419	     13.79659290	      0.00000000	     -0.07422139	      0.50560020	      0.90677354	     -0.13783654	      0.67244827	      0.96344689	     -0.12193832	      1.22931633	      0.96344689	     -0.08482762	      1.22931633	      0.79342685	     -0.06892198	      1.03101993	      0.73675351	     -0.04241010	      0.78317471	      0.68008016	     -0.53015595	      5.71945058	      5.04320242	      0.00000000	      0.00000000	     -0.00000000	      0.00000000	      0.00000000	     76.49885410	    -17.96281327	     29.66798369	     31.01133622	     37.84242460	      0.00000000	      5.00000017	     74.43308458	     -6.15649237	     17.57269383	     30.54377651	     53.40060779	      0.00000000	      5.00000017
